<svg viewBox="106.21241379310344 0 625.5911172413793 357.04032" xmlns:xlink="http://www.w3.org/1999/xlink" xmlns="http://www.w3.org/2000/svg" data-name="Layer 1" id="Layer_1" style="max-height: 500px" width="625.5911172413793" height="357.04032">
  <defs>
    <style>
      .cls-1 {
        letter-spacing: .03em;
      }

      .cls-2 {
        fill: url(#linear-gradient-2);
      }

      .cls-3 {
        font-family: Poppins-SemiBold, Poppins;
        font-size: 25px;
        font-weight: 600;
        letter-spacing: .3em;
      }

      .cls-4 {
        fill: #3982ac;
      }

      .cls-5 {
        letter-spacing: .07em;
      }

      .cls-6 {
        fill: none;
      }

      .cls-7 {
        fill: url(#linear-gradient);
      }

      .cls-8 {
        fill: #3982a5;
        font-family: Montserrat-Bold, Montserrat;
        font-size: 100px;
        font-weight: 700;
      }

      .cls-9 {
        fill: #231f20;
      }

      .cls-10 {
        letter-spacing: .06em;
      }
    </style>
    <linearGradient gradientUnits="userSpaceOnUse" gradientTransform="translate(299.94 -146.28) rotate(60)" y2="353.06" x2="276.39" y1="186.62" x1="276.65" id="linear-gradient">
      <stop stop-color="#014563" offset="0"/>
      <stop stop-color="#3982ac" offset="1"/>
    </linearGradient>
    <linearGradient xlink:href="#linear-gradient" gradientTransform="matrix(1, 0, 0, 1, 0, 0)" y2="152.15" x2="558.12" y1="152.15" x1="333.15" id="linear-gradient-2"/>
  </defs>
  <text transform="translate(0 516.49)" class="cls-3"><tspan y="0" x="0">CRAFTING TOMORROW’S DIGITAL LEGACY </tspan></text>
  <text transform="translate(180.21 448.52)" class="cls-8"><tspan y="0" x="0" class="cls-1">A</tspan><tspan y="0" x="79.3" class="cls-10">Y</tspan><tspan y="0" x="153.2" class="cls-5">N</tspan><tspan y="0" x="241" class="cls-10">Z</tspan><tspan y="0" x="314.4" class="cls-5">O</tspan></text>
  <line y2="323.7" x2="553.37" y1="324.12" x1="553.65" class="cls-9"/>
  <line y2="105.39" x2="425.6" y1="109.15" x1="428.11" class="cls-9"/>
  <path d="m360.65,235.12c-.12.46-.24.91-.34,1.36" class="cls-6"/>
  <rect transform="translate(-23.29 332.89) rotate(-60)" ry="36" rx="36" height="72" width="261" y="150.62" x="146.15" class="cls-7"/>
  <path d="m338.97,201.19l-45.74-79.23c-9.9-17.15-3.97-39.28,13.18-49.18h0c17.15-9.9,39.28-3.97,49.18,13.18l85.57,146.66s-72,18-102.18-31.43Z" class="cls-4"/>
  <path d="m490.97,286.33L333.15,7.62s67.82-29.29,99,27l121.18,215.71c9.9,17.15,3.97,39.28-13.18,49.18h0c-17.15,9.9-39.28,3.97-49.18-13.18Z" class="cls-2"/>
</svg>